<svg xmlns="http://www.w3.org/2000/svg" viewBox="0 0 1048 260.4"><defs><style>.cls-1{fill:#00c1ff;}.cls-2{fill:#ffdc18;}.cls-3{fill:#22e02f;}.cls-4{fill:#606060;}.cls-5{fill:#ff6751;}</style></defs><title>Recurso 2LogoVectorial</title><g id="Capa_2" data-name="Capa 2"><g id="Capa_1-2" data-name="Capa 1"><path class="cls-1" d="M31.22,128.33c0-52.54,42.75-97.12,94.35-97.12h1.36V0A128.34,128.34,0,0,0,0,128.33"/><path class="cls-2" d="M128.33,224c-52.54,0-97.12-42.75-97.12-94.35,0-.45,0-.91,0-1.36H0A128.34,128.34,0,0,0,128.33,255.26"/><path class="cls-3" d="M224,126.93c0,52.54-42.74,97.12-94.34,97.12h-1.36v31.22A128.34,128.34,0,0,0,255.26,126.93"/><path class="cls-4" d="M196.18,112.85a1.92,1.92,0,0,0-2.27-1.77c-3.59.09-7.18.06-10.76.16a2.77,2.77,0,0,1-1.87-.51.31.31,0,0,0,0-.08c-.13-.43-.26-.85-.4-1.28l-.05-.14a56.47,56.47,0,0,0-4-9.24,2.76,2.76,0,0,1,1-2c2.64-2.51,5.07-5.25,7.69-7.78a1.92,1.92,0,0,0,.22-2.48,75.78,75.78,0,0,0-19.72-19.48,1.92,1.92,0,0,0-2.86.35c-2.47,2.6-5,5.12-7.5,7.73a2.86,2.86,0,0,1-1.57.94,56.59,56.59,0,0,0-11-4.6,2.78,2.78,0,0,1-.7-2.16c.09-3.64-.12-7.29-.07-10.94a1.91,1.91,0,0,0-1.59-1.91,76,76,0,0,0-27.72.17,1.93,1.93,0,0,0-1.78,2.27c.1,3.59.07,7.18.17,10.77a2.83,2.83,0,0,1-.45,1.77,55.73,55.73,0,0,0-11,4.55,2.77,2.77,0,0,1-2-1c-2.52-2.64-5.25-5.07-7.79-7.69a1.93,1.93,0,0,0-2.48-.22,77.4,77.4,0,0,0-9.78,8.11l-.33.33-.67.66A74.77,74.77,0,0,0,68,88.12,1.92,1.92,0,0,0,68.33,91c2.6,2.47,5.12,5,7.73,7.49a2.87,2.87,0,0,1,1,1.68,55.8,55.8,0,0,0-4.43,10.73,2.78,2.78,0,0,1-2.18.71c-3.64-.08-7.29.13-10.94.07a1.92,1.92,0,0,0-1.91,1.6,78.43,78.43,0,0,0-1.18,12.64v.47c0,.31,0,.63,0,.94a74.44,74.44,0,0,0,1.37,13.91A1.92,1.92,0,0,0,60,143c3.58-.1,7.17-.07,10.76-.17a2.76,2.76,0,0,1,1.86.51l0,.06c.13.44.27.88.41,1.31l0,.11a55.77,55.77,0,0,0,4,9.25,2.78,2.78,0,0,1-1,2c-2.64,2.51-5.07,5.24-7.68,7.78a1.92,1.92,0,0,0-.23,2.48,79.14,79.14,0,0,0,8.11,9.78l.33.33.66.67A74.65,74.65,0,0,0,88,186a1.92,1.92,0,0,0,2.86-.35c2.47-2.6,5-5.12,7.5-7.72a2.79,2.79,0,0,1,1.67-1,56.46,56.46,0,0,0,10.75,4.45,2.78,2.78,0,0,1,.69,2.16c-.08,3.65.13,7.3.07,10.94a1.92,1.92,0,0,0,1.6,1.91,77.31,77.31,0,0,0,12.64,1.18h1.41a75.28,75.28,0,0,0,13.91-1.36,1.93,1.93,0,0,0,1.78-2.27c-.1-3.59-.07-7.18-.17-10.77a2.76,2.76,0,0,1,.51-1.86,56.27,56.27,0,0,0,11-4.63,2.86,2.86,0,0,1,1.89,1c2.38,2.48,4.94,4.79,7.36,7.24a2.65,2.65,0,0,0,3.41.31,75.61,75.61,0,0,0,19-19.37,1.91,1.91,0,0,0-.35-2.86c-2.6-2.47-5.12-5-7.72-7.49a2.77,2.77,0,0,1-1-1.68,56.93,56.93,0,0,0,4.54-11.08,2.84,2.84,0,0,1,2.06-.6c3.44.07,6.89-.11,10.33-.08a2.65,2.65,0,0,0,2.63-2.2A75.76,75.76,0,0,0,196.18,112.85Zm-69.22,38a22.57,22.57,0,1,1,22.56-22.56A22.57,22.57,0,0,1,127,150.88Z"/><path class="cls-5" d="M126.93,31.22c52.54,0,97.12,42.75,97.12,94.35,0,.45,0,.91,0,1.36h31.22A128.34,128.34,0,0,0,126.93,0"/><path class="cls-4" d="M306.23,219.34a17.78,17.78,0,0,0-4.33.51,10.29,10.29,0,0,0-3.55,1.6,7.71,7.71,0,0,0-2.41,2.78,8.49,8.49,0,0,0-.88,4,5.4,5.4,0,0,0,1.85,4.26,9.9,9.9,0,0,0,2.14,1.45,21,21,0,0,0,2.81,1.17q1.09.4,2.25.87a10.35,10.35,0,0,1,2.08,1.13,6.15,6.15,0,0,1,1.5,1.56,3.85,3.85,0,0,1,.57,2.13,5.33,5.33,0,0,1-.46,2.2,4.77,4.77,0,0,1-1.48,1.83,7.93,7.93,0,0,1-2.63,1.22,15.33,15.33,0,0,1-3.95.44,14.12,14.12,0,0,1-2.69-.22,11.74,11.74,0,0,1-2.06-.58,7.41,7.41,0,0,1-1.63-.86c-.49-.34-1-.71-1.44-1.09L290.29,247a15.62,15.62,0,0,0,3.91,1.73,17.41,17.41,0,0,0,5.19.72,19.1,19.1,0,0,0,4.59-.56,12,12,0,0,0,4-1.76A9.2,9.2,0,0,0,310.8,244a9.05,9.05,0,0,0,1.08-4.56,6.15,6.15,0,0,0-.62-2.87,7.09,7.09,0,0,0-1.61-2,9.2,9.2,0,0,0-2.29-1.45c-.87-.38-1.75-.74-2.63-1.06-1.06-.39-2-.74-2.78-1.05a10.63,10.63,0,0,1-2-1,4,4,0,0,1-1.17-1.14,2.78,2.78,0,0,1-.4-1.51,4.31,4.31,0,0,1,1.9-3.84,9.09,9.09,0,0,1,5.12-1.27,18.49,18.49,0,0,1,1.9.11,14.53,14.53,0,0,1,2,.36,9,9,0,0,1,1.83.66,4.91,4.91,0,0,1,1.44,1l1.63-3.42a14.27,14.27,0,0,0-3.49-1.2A19.71,19.71,0,0,0,306.23,219.34Z"/><path class="cls-4" d="M335.24,230.34a7.16,7.16,0,0,0-2.58-1.87,9.38,9.38,0,0,0-3.78-.69,12.93,12.93,0,0,0-5.54,1.13,12.08,12.08,0,0,0-4,3,13.35,13.35,0,0,0-2.45,4.23,14.19,14.19,0,0,0-.84,4.8,10.54,10.54,0,0,0,.49,3.26,7.42,7.42,0,0,0,1.5,2.71,6.87,6.87,0,0,0,2.63,1.85,10,10,0,0,0,3.82.67,12.78,12.78,0,0,0,5.56-1.14,12,12,0,0,0,4-2.95,12.31,12.31,0,0,0,2.39-4.18,15.07,15.07,0,0,0,.79-4.85,11.17,11.17,0,0,0-.46-3.26A7.31,7.31,0,0,0,335.24,230.34Zm-2,10.13a10,10,0,0,1-1.67,3.31,8.8,8.8,0,0,1-2.79,2.38,7.84,7.84,0,0,1-3.86.91,5.73,5.73,0,0,1-2.56-.53,4.89,4.89,0,0,1-1.74-1.43,5.73,5.73,0,0,1-1-2.06,10,10,0,0,1-.31-2.47,12.84,12.84,0,0,1,.56-3.71,10.18,10.18,0,0,1,1.65-3.31,8.55,8.55,0,0,1,2.78-2.38,8,8,0,0,1,3.89-.91,5.87,5.87,0,0,1,2.56.51,4.71,4.71,0,0,1,1.74,1.4,5.7,5.7,0,0,1,1,2.07,10.09,10.09,0,0,1,.31,2.51A12.84,12.84,0,0,1,333.27,240.47Z"/><path class="cls-4" d="M350,221.91a11.93,11.93,0,0,1,.84-2.29,3.35,3.35,0,0,1,.95-1.25A1.87,1.87,0,0,1,353,218a4.79,4.79,0,0,1,1.17.17c.43.12.84.25,1.22.38l1,.36a2.21,2.21,0,0,0,.58.16l1.33-2.64a4.89,4.89,0,0,0-1.05-.45,6.33,6.33,0,0,0-1.08-.23,7,7,0,0,0-1-.07h-.55a8,8,0,0,0-2.7.47,5.59,5.59,0,0,0-2.44,1.73,8.9,8.9,0,0,0-.93,1.28,13,13,0,0,0-1,2q-.51,1.23-1.05,3c-.35,1.2-.71,2.63-1.07,4.31l-3.52.41-.36,1.66H345l-6.3,29.82h3.08l6.3-29.82h4.77l.46-2.2h-4.8l.62-2.94C349.47,224,349.75,222.87,350,221.91Z"/><path class="cls-4" d="M362.83,222.24h-2.31l-2,6.23-3.61.45-.36,1.66h3.3l-3.15,15c-.06.35-.12.69-.19,1a5.67,5.67,0,0,0-.09,1,2.91,2.91,0,0,0,.7,2,3.57,3.57,0,0,0,2.78.82,11.41,11.41,0,0,0,2.9-.37,15.79,15.79,0,0,0,2.2-.75l-.14-2.47a7.63,7.63,0,0,1-1.62.79,6,6,0,0,1-2,.33,2,2,0,0,1-1.09-.24c-.23-.15-.34-.48-.34-1a6.5,6.5,0,0,1,.13-1.21l3.16-14.88h5l.47-2.2h-5.06Z"/><polygon class="cls-4" points="400.39 228.38 389.89 245.95 387.57 228.38 384.28 228.38 374.13 245.95 371.46 228.38 368.17 228.38 371.33 249 375.56 249 384.86 232.87 387 249 391.23 249 403.56 228.38 400.39 228.38"/><path class="cls-4" d="M421.93,232.28a4.55,4.55,0,0,0-1.84-3.26,7.35,7.35,0,0,0-4.67-1.31,11,11,0,0,0-5.15,1.19A12.56,12.56,0,0,0,406.4,232a13.51,13.51,0,0,0-2.42,4.39,15.49,15.49,0,0,0-.84,5,11.87,11.87,0,0,0,.43,3.19,7.9,7.9,0,0,0,1.3,2.65,6.34,6.34,0,0,0,2.23,1.79,7.32,7.32,0,0,0,3.19.65,10.63,10.63,0,0,0,5.22-1.29,13.72,13.72,0,0,0,3.77-3h.06l-.42,3.51h2.4l4.32-20.62h-2.27Zm-2.27,10a11.39,11.39,0,0,1-4,3.34,9.91,9.91,0,0,1-4.43,1.15,4.38,4.38,0,0,1-2.17-.49,4.11,4.11,0,0,1-1.43-1.28,5.52,5.52,0,0,1-.8-1.85,9.51,9.51,0,0,1-.24-2.15,12.87,12.87,0,0,1,.66-4.14,11,11,0,0,1,1.81-3.38,8.85,8.85,0,0,1,2.76-2.26,7.42,7.42,0,0,1,3.47-.85,5.61,5.61,0,0,1,3.91,1.43,6,6,0,0,1,1.83,3.95Z"/><path class="cls-4" d="M443,228.39a5.28,5.28,0,0,0-1.68-.28,5.81,5.81,0,0,0-2.19.41,7.7,7.7,0,0,0-1.88,1.13,9.27,9.27,0,0,0-1.57,1.62,13.14,13.14,0,0,0-1.22,1.94h-.24l.67-4.83h-2.44L428.12,249h3.18l2.49-11.83a15.34,15.34,0,0,1,1.24-2.29,12.8,12.8,0,0,1,1.55-1.94,7.59,7.59,0,0,1,1.73-1.31,3.65,3.65,0,0,1,1.77-.49,3.79,3.79,0,0,1,1.31.24,6.58,6.58,0,0,1,1.27.64l1.53-2.9A2.28,2.28,0,0,0,443,228.39Z"/><path class="cls-4" d="M462,229.34a7.36,7.36,0,0,0-5-1.53,12.67,12.67,0,0,0-5.37,1.11,13.2,13.2,0,0,0-7.7,12,10.78,10.78,0,0,0,.5,3.29,7.61,7.61,0,0,0,1.53,2.71,7.29,7.29,0,0,0,2.54,1.85,8.61,8.61,0,0,0,3.59.68,13.79,13.79,0,0,0,2.59-.24,19.35,19.35,0,0,0,2.36-.6,19.61,19.61,0,0,0,2-.78q.93-.42,1.59-.78v-2.53a17.91,17.91,0,0,1-1.61.89,20.5,20.5,0,0,1-1.9.82,14.8,14.8,0,0,1-2.08.62,9.26,9.26,0,0,1-2.14.25,5.79,5.79,0,0,1-2.54-.53,4.87,4.87,0,0,1-1.76-1.43,5.94,5.94,0,0,1-1-2.06,9.33,9.33,0,0,1-.33-2.51,12.4,12.4,0,0,1,.27-2.54h15a6.25,6.25,0,0,0,.79-1.8,8.28,8.28,0,0,0,.4-2.55A5.51,5.51,0,0,0,462,229.34Zm-1.12,6c-.07.19-.14.36-.2.51H448.49a10.06,10.06,0,0,1,3-3.82,7.93,7.93,0,0,1,5-1.56,5.3,5.3,0,0,1,3.18,1,3.27,3.27,0,0,1,1.32,2.82A3.68,3.68,0,0,1,460.92,235.33Z"/><path class="cls-4" d="M503.42,222.92a9.9,9.9,0,0,0-3.86-2.43,16.32,16.32,0,0,0-5.55-.88h-9.67l-6.18,29.45a24,24,0,0,0,4.42.38h5.56a17.73,17.73,0,0,0,7.64-1.57,16.7,16.7,0,0,0,5.56-4.14,17.62,17.62,0,0,0,3.4-5.88,20.38,20.38,0,0,0,1.15-6.78,17.61,17.61,0,0,0-.59-4.54A8.68,8.68,0,0,0,503.42,222.92Zm-2,14.11a13.71,13.71,0,0,1-2.54,5,11.46,11.46,0,0,1-4.26,3.24,14.66,14.66,0,0,1-6,1.15c-2.59,0-4.79-.09-6.58-.26l5-23.88h6.62a11.26,11.26,0,0,1,4,.62,7.14,7.14,0,0,1,2.68,1.73,6.65,6.65,0,0,1,1.5,2.66,12,12,0,0,1,.46,3.45A22.5,22.5,0,0,1,501.43,237Z"/><path class="cls-4" d="M516.09,218.67a2.56,2.56,0,0,0-1,.22,2.86,2.86,0,0,0-.88.6,3.2,3.2,0,0,0-.62.87,2.31,2.31,0,0,0-.24,1,1.8,1.8,0,0,0,.51,1.29,1.7,1.7,0,0,0,1.3.53,2.88,2.88,0,0,0,1.9-.75,2.32,2.32,0,0,0,.88-1.82,2,2,0,0,0-.51-1.36A1.63,1.63,0,0,0,516.09,218.67Z"/><polygon class="cls-4" points="508.11 249 511.23 249 515.59 228.38 512.48 228.38 508.11 249"/><path class="cls-4" d="M537,228.94a5,5,0,0,0-1.79-.84,8.85,8.85,0,0,0-2.23-.27,10.29,10.29,0,0,0-5.25,1.32,7.91,7.91,0,0,0-3.25,3.18h-.17l.5-4h-2.42L518,249h3.08l2.79-13.15a10.16,10.16,0,0,1,1.59-2.29,10.56,10.56,0,0,1,2-1.7,8.4,8.4,0,0,1,2.21-1,7.56,7.56,0,0,1,2.26-.36,3.74,3.74,0,0,1,2.48.78,3.11,3.11,0,0,1,.93,2.52,8.09,8.09,0,0,1-.18,1.69L532.3,249h3.1l3-13.95a11.46,11.46,0,0,0,.26-2.27,5.49,5.49,0,0,0-.44-2.32A4.12,4.12,0,0,0,537,228.94Z"/><path class="cls-4" d="M564.5,221a2.3,2.3,0,0,0,.4-1.16,1.23,1.23,0,0,0-.33-.85,1.31,1.31,0,0,0-1-.35l-8.88,4.47-.18.31v.88l.36.14Z"/><path class="cls-4" d="M561.19,232.28a4.55,4.55,0,0,0-1.84-3.26,7.35,7.35,0,0,0-4.67-1.31,11,11,0,0,0-5.15,1.19,12.56,12.56,0,0,0-3.87,3.13,13.72,13.72,0,0,0-2.43,4.39,15.75,15.75,0,0,0-.83,5,11.87,11.87,0,0,0,.43,3.19,7.72,7.72,0,0,0,1.3,2.65,6.34,6.34,0,0,0,2.23,1.79,7.32,7.32,0,0,0,3.19.65,10.63,10.63,0,0,0,5.22-1.29,13.72,13.72,0,0,0,3.77-3h.06l-.42,3.51h2.4l4.32-20.62h-2.27Zm-2.27,10a11.47,11.47,0,0,1-4,3.33,9.93,9.93,0,0,1-4.43,1.16,4.38,4.38,0,0,1-2.17-.49,4.23,4.23,0,0,1-1.43-1.29,5.28,5.28,0,0,1-.8-1.84,9.66,9.66,0,0,1-.24-2.16,12.81,12.81,0,0,1,.66-4.13,10.91,10.91,0,0,1,1.81-3.38,8.88,8.88,0,0,1,2.76-2.27,7.41,7.41,0,0,1,3.47-.84,5.6,5.6,0,0,1,3.91,1.42,6,6,0,0,1,1.83,4Z"/><path class="cls-4" d="M600.22,229a5,5,0,0,0-1.82-.87,8.65,8.65,0,0,0-2.19-.27,9.17,9.17,0,0,0-5.11,1.36,12.53,12.53,0,0,0-3.39,3.14,4.08,4.08,0,0,0-1.57-3.32,6.66,6.66,0,0,0-4.18-1.18,9.39,9.39,0,0,0-5.05,1.32,8.19,8.19,0,0,0-3.1,3.18h-.15l.5-4h-2.42L567.38,249h3.07l2.79-13.15a10.3,10.3,0,0,1,3.43-4,7.77,7.77,0,0,1,4.36-1.4,4,4,0,0,1,2.52.76,3.06,3.06,0,0,1,1,2.58,7.84,7.84,0,0,1-.17,1.65L581.47,249h3.1l2.79-13.15a10.38,10.38,0,0,1,3.43-4,7.77,7.77,0,0,1,4.36-1.4,4,4,0,0,1,2.52.76,3.06,3.06,0,0,1,1,2.58,7.86,7.86,0,0,1-.18,1.65L595.59,249h3.1l3-13.95a10.63,10.63,0,0,0,.26-2.18,5.34,5.34,0,0,0-.46-2.34A4.38,4.38,0,0,0,600.22,229Z"/><path class="cls-4" d="M613.23,218.67a2.52,2.52,0,0,0-1,.22,2.86,2.86,0,0,0-.88.6,3.2,3.2,0,0,0-.62.87,2.31,2.31,0,0,0-.24,1,1.83,1.83,0,0,0,.5,1.29,1.72,1.72,0,0,0,1.31.53,2.9,2.9,0,0,0,1.9-.75,2.35,2.35,0,0,0,.88-1.82,2,2,0,0,0-.51-1.36A1.63,1.63,0,0,0,613.23,218.67Z"/><polygon class="cls-4" points="605.25 249 608.37 249 612.73 228.38 609.61 228.38 605.25 249"/><path class="cls-4" d="M629.06,227.78a13.57,13.57,0,0,0-5.79,1.16,12.38,12.38,0,0,0-4.1,3,12.11,12.11,0,0,0-2.43,4.2,14.76,14.76,0,0,0-.8,4.75,10.78,10.78,0,0,0,.49,3.29,7.42,7.42,0,0,0,1.5,2.73,7,7,0,0,0,2.56,1.85,9.29,9.29,0,0,0,3.67.67,15.71,15.71,0,0,0,4.72-.72,18.5,18.5,0,0,0,3.71-1.51v-2.89a13.37,13.37,0,0,1-3.53,1.92,11,11,0,0,1-3.8.75,6.14,6.14,0,0,1-2.65-.53,5.09,5.09,0,0,1-1.83-1.47,6.13,6.13,0,0,1-1.08-2.15,9.23,9.23,0,0,1-.36-2.6,11.91,11.91,0,0,1,.56-3.56,9.88,9.88,0,0,1,1.67-3.22,8.62,8.62,0,0,1,2.85-2.34,8.77,8.77,0,0,1,4.06-.88,11.34,11.34,0,0,1,3.67.6,7.68,7.68,0,0,1,2.6,1.35l1.33-2.62a8.56,8.56,0,0,0-3-1.29A16.14,16.14,0,0,0,629.06,227.78Z"/><path class="cls-4" d="M656.76,230.34a7,7,0,0,0-2.58-1.87,9.3,9.3,0,0,0-3.77-.69,13,13,0,0,0-5.55,1.13,12,12,0,0,0-4,3,13.16,13.16,0,0,0-2.45,4.23,14.19,14.19,0,0,0-.84,4.8,10.85,10.85,0,0,0,.48,3.26,7.72,7.72,0,0,0,1.5,2.71,7,7,0,0,0,2.63,1.85,10.07,10.07,0,0,0,3.82.67,12.75,12.75,0,0,0,5.56-1.14,12.06,12.06,0,0,0,4-2.95,12.29,12.29,0,0,0,2.38-4.18,15.08,15.08,0,0,0,.8-4.85,11.17,11.17,0,0,0-.47-3.26A7.31,7.31,0,0,0,656.76,230.34Zm-2,10.13a10.24,10.24,0,0,1-1.68,3.31,8.87,8.87,0,0,1-2.78,2.38,7.84,7.84,0,0,1-3.86.91,5.7,5.7,0,0,1-2.56-.53,5,5,0,0,1-1.75-1.43,5.56,5.56,0,0,1-1-2.06,9.55,9.55,0,0,1-.31-2.47,12.83,12.83,0,0,1,.55-3.71,10.4,10.4,0,0,1,1.66-3.31,8.45,8.45,0,0,1,2.78-2.38,8,8,0,0,1,3.88-.91,5.84,5.84,0,0,1,2.56.51,4.83,4.83,0,0,1,1.75,1.4,5.68,5.68,0,0,1,1,2.07,9.64,9.64,0,0,1,.31,2.51A12.83,12.83,0,0,1,654.8,240.47Z"/><path class="cls-4" d="M691.84,232.28A4.55,4.55,0,0,0,690,229a7.35,7.35,0,0,0-4.67-1.31,11,11,0,0,0-5.15,1.19,12.56,12.56,0,0,0-3.87,3.13,13.72,13.72,0,0,0-2.43,4.39,15.75,15.75,0,0,0-.83,5,11.87,11.87,0,0,0,.43,3.19,7.72,7.72,0,0,0,1.3,2.65,6.34,6.34,0,0,0,2.23,1.79,7.32,7.32,0,0,0,3.19.65,10.63,10.63,0,0,0,5.22-1.29,13.72,13.72,0,0,0,3.77-3h.06l-.42,3.51h2.4l4.32-20.62h-2.27Zm-2.27,10a11.39,11.39,0,0,1-4,3.34,9.91,9.91,0,0,1-4.43,1.15,4.38,4.38,0,0,1-2.17-.49,4.11,4.11,0,0,1-1.43-1.28,5.33,5.33,0,0,1-.8-1.85,9.51,9.51,0,0,1-.24-2.15,12.87,12.87,0,0,1,.66-4.14,11,11,0,0,1,1.81-3.38,8.85,8.85,0,0,1,2.76-2.26,7.42,7.42,0,0,1,3.47-.85,5.61,5.61,0,0,1,3.91,1.43,6,6,0,0,1,1.83,3.95Z"/><path class="cls-4" d="M723.21,228.25a13.17,13.17,0,0,0-1.83-.36,16.35,16.35,0,0,0-1.79-.11,11.63,11.63,0,0,0-3.51.51,8.44,8.44,0,0,0-2.78,1.45,6.76,6.76,0,0,0-1.83,2.2,5.9,5.9,0,0,0-.66,2.77,4.39,4.39,0,0,0,.81,2.49,5.05,5.05,0,0,0,3,1.78l4,1.07a3,3,0,0,1,2,1.24,3.13,3.13,0,0,1,.49,1.56,3.36,3.36,0,0,1-.4,1.6,4.51,4.51,0,0,1-1.1,1.35,5.5,5.5,0,0,1-1.7,1,6.37,6.37,0,0,1-2.19.35,9.64,9.64,0,0,1-3.33-.66,7.54,7.54,0,0,1-3.07-2.14l-1.41,2.89a9.61,9.61,0,0,0,2.85,1.54,11.76,11.76,0,0,0,4.17.69,11.44,11.44,0,0,0,3.88-.63,10,10,0,0,0,3-1.64,7.38,7.38,0,0,0,2-2.4,6.27,6.27,0,0,0,.71-2.89,5.05,5.05,0,0,0-.2-1.33,3.55,3.55,0,0,0-.73-1.36,5.4,5.4,0,0,0-1.43-1.18,9.3,9.3,0,0,0-2.32-.89l-3-.71a3.52,3.52,0,0,1-2.17-1.15,2.7,2.7,0,0,1-.57-1.56,3.13,3.13,0,0,1,1.1-2.44,5.44,5.44,0,0,1,3.62-1,10.11,10.11,0,0,1,3.67.62,6.93,6.93,0,0,1,2.34,1.38l1.41-2.67a6.13,6.13,0,0,0-1.37-.77A12.29,12.29,0,0,0,723.21,228.25Z"/><path class="cls-4" d="M744,241.6a9.86,9.86,0,0,1-3.62,4,8.8,8.8,0,0,1-4.52,1.34,4.1,4.1,0,0,1-2.47-.69,2.9,2.9,0,0,1-1-2.49,4.42,4.42,0,0,1,.07-.78c0-.29.09-.59.15-.92l2.9-13.63h-3.06l-3,14a12,12,0,0,0-.26,2.27,5.39,5.39,0,0,0,.44,2.28,3.87,3.87,0,0,0,1.2,1.49,4.8,4.8,0,0,0,1.79.8,9.91,9.91,0,0,0,2.24.25,10.66,10.66,0,0,0,5.22-1.25,7.68,7.68,0,0,0,3.23-3.12h.17l-.5,3.95h2.47l4.36-20.62h-3.12Z"/><path class="cls-4" d="M796,229a5,5,0,0,0-1.82-.87,8.65,8.65,0,0,0-2.19-.27,9.19,9.19,0,0,0-5.11,1.36,12.53,12.53,0,0,0-3.39,3.14,4.08,4.08,0,0,0-1.57-3.32,6.66,6.66,0,0,0-4.18-1.18,9.39,9.39,0,0,0-5.05,1.32,8.19,8.19,0,0,0-3.1,3.18h-.15l.5-4h-2.42L763.11,249h3.07L769,235.85a10.38,10.38,0,0,1,3.43-4,7.77,7.77,0,0,1,4.36-1.4,4,4,0,0,1,2.52.76,3.06,3.06,0,0,1,1,2.58,7.86,7.86,0,0,1-.18,1.65L777.2,249h3.1l2.79-13.15a10.38,10.38,0,0,1,3.43-4,7.77,7.77,0,0,1,4.36-1.4,4,4,0,0,1,2.52.76,3.06,3.06,0,0,1,1,2.58,7.86,7.86,0,0,1-.18,1.65L791.32,249h3.1l3-13.95a10.63,10.63,0,0,0,.26-2.18,5.34,5.34,0,0,0-.46-2.34A4.38,4.38,0,0,0,796,229Z"/><path class="cls-4" d="M819.47,229.34a7.34,7.34,0,0,0-5-1.53,12.71,12.71,0,0,0-5.37,1.11,13,13,0,0,0-4.12,3,13.34,13.34,0,0,0-3.58,9,10.49,10.49,0,0,0,.51,3.29,7.59,7.59,0,0,0,1.52,2.71,7.38,7.38,0,0,0,2.54,1.85,8.66,8.66,0,0,0,3.6.68,13.76,13.76,0,0,0,2.58-.24,19.56,19.56,0,0,0,4.39-1.38q.93-.42,1.59-.78v-2.53a16.63,16.63,0,0,1-1.61.89,19.39,19.39,0,0,1-1.9.82,15.07,15.07,0,0,1-2.07.62,9.32,9.32,0,0,1-2.14.25,5.76,5.76,0,0,1-2.54-.53,5,5,0,0,1-1.77-1.43,6.1,6.1,0,0,1-1-2.06,9.33,9.33,0,0,1-.33-2.51A12.38,12.38,0,0,1,805,238h15a6.22,6.22,0,0,0,.8-1.8,8.58,8.58,0,0,0,.39-2.55A5.51,5.51,0,0,0,819.47,229.34Zm-1.08,6c-.08.19-.14.36-.2.51H806a9.87,9.87,0,0,1,3-3.82,7.89,7.89,0,0,1,5-1.56,5.26,5.26,0,0,1,3.18,1,3.27,3.27,0,0,1,1.33,2.82A3.68,3.68,0,0,1,818.39,235.33Z"/><path class="cls-4" d="M846.32,216.1l-3.42,16.35a4.51,4.51,0,0,0-1.81-3.22,7.34,7.34,0,0,0-4.62-1.29,10.72,10.72,0,0,0-5.08,1.18,12.58,12.58,0,0,0-3.81,3.08,13.57,13.57,0,0,0-2.4,4.33,15.47,15.47,0,0,0-.82,5,11.52,11.52,0,0,0,.42,3.15,7.42,7.42,0,0,0,1.29,2.61,6.12,6.12,0,0,0,2.19,1.77,7.17,7.17,0,0,0,3.15.65,10.46,10.46,0,0,0,5.15-1.28,13.42,13.42,0,0,0,3.73-2.92h.14L840,249h2.42l6.93-32.9Zm-5.57,26.21a11.39,11.39,0,0,1-4,3.34,9.91,9.91,0,0,1-4.43,1.15,4.38,4.38,0,0,1-2.17-.49,4.11,4.11,0,0,1-1.43-1.28,5.33,5.33,0,0,1-.8-1.85,9.51,9.51,0,0,1-.24-2.15,12.87,12.87,0,0,1,.66-4.14,11,11,0,0,1,1.81-3.38,8.85,8.85,0,0,1,2.76-2.26,7.42,7.42,0,0,1,3.47-.85,5.61,5.61,0,0,1,3.91,1.43,6,6,0,0,1,1.83,3.95Z"/><polygon class="cls-4" points="849.2 249 852.31 249 856.67 228.38 853.56 228.38 849.2 249"/><path class="cls-4" d="M857.17,218.67a2.48,2.48,0,0,0-1,.22,2.91,2.91,0,0,0-.89.6,3.17,3.17,0,0,0-.61.87,2.2,2.2,0,0,0-.25,1,1.8,1.8,0,0,0,.51,1.29,1.7,1.7,0,0,0,1.3.53,2.88,2.88,0,0,0,1.9-.75,2.32,2.32,0,0,0,.88-1.82,2.08,2.08,0,0,0-.5-1.36A1.65,1.65,0,0,0,857.17,218.67Z"/><path class="cls-4" d="M878.23,232.45a4.55,4.55,0,0,0-1.82-3.22,7.32,7.32,0,0,0-4.62-1.29,10.72,10.72,0,0,0-5.08,1.18,12.58,12.58,0,0,0-3.81,3.08,13.57,13.57,0,0,0-2.4,4.33,15.75,15.75,0,0,0-.82,5,11.52,11.52,0,0,0,.42,3.15,7.42,7.42,0,0,0,1.29,2.61,6.07,6.07,0,0,0,2.2,1.77,7.11,7.11,0,0,0,3.15.65,10.45,10.45,0,0,0,5.14-1.28,13.42,13.42,0,0,0,3.73-2.92h.14l-.42,3.51h2.42l6.93-32.9h-3Zm-2.16,9.86a11.45,11.45,0,0,1-4,3.34,10,10,0,0,1-4.44,1.15,4.38,4.38,0,0,1-2.17-.49A4.2,4.2,0,0,1,864,245a5.31,5.31,0,0,1-.79-1.85A9,9,0,0,1,863,241a12.87,12.87,0,0,1,.66-4.14,11.25,11.25,0,0,1,1.81-3.38,8.85,8.85,0,0,1,2.76-2.26,7.42,7.42,0,0,1,3.47-.85,5.61,5.61,0,0,1,3.91,1.43,6,6,0,0,1,1.83,3.95Z"/><path class="cls-4" d="M905.17,228.38l-1.44,3.9a4.55,4.55,0,0,0-1.84-3.26,7.35,7.35,0,0,0-4.67-1.31,11,11,0,0,0-5.15,1.19A12.56,12.56,0,0,0,888.2,232a13.72,13.72,0,0,0-2.43,4.39,15.75,15.75,0,0,0-.83,5,11.49,11.49,0,0,0,.43,3.19,7.72,7.72,0,0,0,1.3,2.65,6.34,6.34,0,0,0,2.23,1.79,7.32,7.32,0,0,0,3.19.65,10.56,10.56,0,0,0,5.21-1.29,13.63,13.63,0,0,0,3.78-3h.06l-.42,3.51h2.4l4.32-20.62Zm-3.71,13.93a11.39,11.39,0,0,1-4,3.34A9.91,9.91,0,0,1,893,246.8a4.38,4.38,0,0,1-2.17-.49,4.11,4.11,0,0,1-1.43-1.28,5.33,5.33,0,0,1-.8-1.85,9.51,9.51,0,0,1-.24-2.15,12.87,12.87,0,0,1,.66-4.14,11,11,0,0,1,1.81-3.38,8.85,8.85,0,0,1,2.76-2.26,7.42,7.42,0,0,1,3.47-.85,5.61,5.61,0,0,1,3.91,1.43,6,6,0,0,1,1.83,3.95Z"/><path class="cls-4" d="M289.76,193.4c0-58.78,0-120.28,0-179.07,0-1.67.18-2.19,2.07-2.19,20.81.1,70.23.65,73.94,1.31,14.54,2,28.13,6.75,40.13,15.35,13.73,9.84,22.07,23.48,26.89,39.46a121.24,121.24,0,0,1,4.77,42.24c-1,17.4-5.13,33.93-15.09,48.57-12.38,18.22-29.84,28.55-51.27,32.55a118.48,118.48,0,0,1-22,1.68c-11.61,0-23.23.12-34.85-.05Zm80.3-19.51a46.76,46.76,0,0,0,21-8.95c10.43-7.79,14.9-17.31,17.92-25.3a90.52,90.52,0,0,0,5.39-26.07c1-14.36.56-28.62-3.28-42.6-2.9-10.51-8-19.75-16.37-26.92C383,34.06,369,30.6,354,30.31c-13.51-.26-27-.08-40.55-.09-3,0-3,0-3,3v69q0,34.63,0,69.26a3.16,3.16,0,0,0,.59,2.33,2.75,2.75,0,0,0,2,.71C332,174.51,359.11,176,370.06,173.89Z"/><path class="cls-4" d="M944.07,256c0-62,0-127.15,0-189.19,0-2.18.63-2.91,2.86-2.9,15.13.08,30.26-.14,45.38.1,9.93.17,19.86,1,29.36,4.3,14.28,5,23.12,14.61,25.1,29.94.4,3.14.82,6.28,1.23,9.42,0,12.79,0,28.49,0,41.28-.27,2.19-.51,4.37-.82,6.55-.85,6-1.81,12-5.07,17.32-4.81,7.82-11.89,12.73-20.45,15.67-9.65,3.3-19.71,4-29.79,4.31-8,.22-15.93,0-23.89,0-3.18,0-3.19,0-3.19,3.11q0,28.5,0,57c0,1-.07,2-.1,3.06Zm20.87-129.35c0,13.45,0,30,0,43.41,0,2.54.41,3,2.92,3,11.11,0,22.22.06,33.32-.1a27.43,27.43,0,0,0,15.39-5.1c7.77-5.37,10.44-13.42,10.81-22.21.43-10.36.16-23.82.09-34.2a31.07,31.07,0,0,0-3.42-13.94c-4.88-9.49-13.32-13.48-23.52-13.8-10.73-.33-21.48-.11-32.22-.12-3.08,0-3.37.3-3.37,3.41Q964.93,106.82,964.94,126.66Z"/><path class="cls-4" d="M771.8,131c0,9.24.19,16.62,0,24-.46,14.59-7,25.62-20.54,31.48-21.56,9.32-43.33,9.51-64.72-.61-13.52-6.4-19.48-17.95-20.06-32.49a34.86,34.86,0,0,1,11.28-27.94c4.79-4.52,10.81-6.84,16.83-9.15,7.72-3,15.8-4,24-4.79,10-.9,20-.42,30,.4,4.39.37,4.71,0,4.22-4.74-1.55-15.21-9.64-22.19-25.45-24.38-15.44-2.13-30.58-.37-45.42,4.26-3,.93-3.07.91-3.08-2.2,0-4.31,0-8.63,0-12.94,0-1.28.27-2.21,1.69-2.66,18.47-5.92,37.25-8.33,56.33-3.72,20.82,5,32.1,18.56,34.55,39.09C772.43,114,771.47,123.39,771.8,131Zm-18.61,12.3c0-4.39,0-8,0-11.55,0-3-.14-3.08-3.18-3.41a162.71,162.71,0,0,0-31.9-.39c-7.44.67-14.75,2-21.45,5.62-8.39,4.5-12,11.52-11.3,20.94.67,8.6,5.15,14.38,13,17.6s16.06,3.63,24.33,3.35c6.35-.21,12.67-1,18.56-3.69,6.57-3,10.63-7.95,11.59-15.29C753.47,151.76,753,147.1,753.19,143.25Z"/><path class="cls-4" d="M532.86,129.7V66.35c0-3,0-3.07,3.06-3.07,15,0,30-.18,44.94.06,10,.16,20,1,29.57,4.3,14.19,5,23,14.5,25.08,29.73a184.41,184.41,0,0,1,1.38,20.74q0,35.73,0,71.47c0,3.14,0,3.15-3.14,3.15q-7.12,0-14.25,0c-3.3,0-3.31,0-3.31-3.25q0-35.62,0-71.25c0-4.26-.4-11.94-1.52-16.07-2.91-10.74-10.28-16.41-20.79-18.62a42.62,42.62,0,0,0-8.73-.55c-9.36,0-18.71,0-28.07,0-3.26,0-3.51.26-3.51,3.49,0,33,0,69.42,0,102.38,0,.8,0,1.6,0,2.41a1.31,1.31,0,0,1-1.51,1.45H534.49c-1.12,0-1.57-.6-1.6-1.63q0-1.09,0-2.19Z"/><path class="cls-4" d="M824.82,107.41c0,12-.06,24,0,35.94a42.85,42.85,0,0,0,2.43,13.53c3.17,9.28,9.67,15,19.11,17.25a52.85,52.85,0,0,0,23.67.39c12.95-2.75,20-10.29,22.57-23.69a78.39,78.39,0,0,0,1-14.83c0-21.56-.06-46.62-.08-68.17,0-3.6,0-3.6,3.62-3.6,4.31,0,8.62,0,12.93,0,1.72,0,2.5.45,2.49,2.33-.06,24,.11,51.44-.18,75.4a57.42,57.42,0,0,1-7,27.55,43.15,43.15,0,0,1-27,21.23,68.61,68.61,0,0,1-38.91-.13c-17.43-5.2-27.59-17.48-31.8-35.12a70.32,70.32,0,0,1-1.84-16.1c0-22.82-.05-49.15-.07-72,0-3.16,0-3.17,3.12-3.17,4.53,0,9.07.06,13.59,0,1.84,0,2.39.67,2.38,2.44,0,12.42,0,28.35,0,40.77Z"/><path class="cls-4" d="M468.13,128.11V65.88c0-3.06,0-3.07,3-3.07q7.66,0,15.33,0c3.3,0,3.31,0,3.31,3.24q0,28.92,0,57.85,0,33.07,0,66.17c0,3.15,0,3.16-3.15,3.16-5.11,0-10.23,0-15.34,0-3.17,0-3.18,0-3.18-3.11Z"/><path class="cls-4" d="M479.8,14c7.05,0,11.47,3.8,12.59,10.83,1.15,7.2-1.33,12.82-6.77,15.45-6.92,3.34-18.31.53-18.48-11.3a30.31,30.31,0,0,1,.12-4.37C468.15,18,472.81,14,479.8,14Z"/></g></g></svg>